# xmcd
#
# Track frame offsets: 
#        183
#        13595
#        26933
#        38760
#        49583
#        64405
#        77168
#        90785
#        101183
#        114220
#        125423
#        138553
#        151285
#        160558
#        172238
#        183275
#        196505
#        210103
#        225058
#        237368
#
# Disc length: 3340 seconds
#
# Revision: 2
# Processed by: cddbd v1.5.2PL0 Copyright (c) Steve Scherf et al.
# Submitted via: ExactAudioCopyFreeDBPlugin 1.0
#
DISCID=f00d0a14
DTITLE=Kim Weston - Greatest Hits and Rare Classics
DYEAR=1900
DGENRE=Motown
TTITLE0=Kim Weston and Marvin Gaye - It Takes Two
TTITLE1=Take Me In Your Arms (Rock Me A Little While)
TTITLE2=Helpless
TTITLE3=Do Like I Do
TTITLE4=Kim Weston and Marvin Gaye - Teach Me Tonight
TTITLE5=I'm Still Lovin' You
TTITLE6=A Little More Love
TTITLE7=It Should Have Been Me
TTITLE8=Love Me All The Way
TTITLE9=Looking For The Right Guy
TTITLE10=Kim Weston and Marvin Gaye - What Good Am I Without You
TTITLE11=A Love Like Yours (Don't Come Knocking Everyday)
TTITLE12=Another Train Coming
TTITLE13=Feel Alright Tonight
TTITLE14=Kim Weston and Marvin Gaye - Baby (Don't You Leave Me)
TTITLE15=I'll Never See My Love Again
TTITLE16=A Thrill A Moment
TTITLE17=Just Loving You
TTITLE18=Don't Compare Me With Her
TTITLE19=Go Ahead And Laugh
EXTD=
EXTT0=
EXTT1=
EXTT2=
EXTT3=
EXTT4=
EXTT5=
EXTT6=
EXTT7=
EXTT8=
EXTT9=
EXTT10=
EXTT11=
EXTT12=
EXTT13=
EXTT14=
EXTT15=
EXTT16=
EXTT17=
EXTT18=
EXTT19=
PLAYORDER=
